<?xml version="1.0" encoding="utf-8"?>
<svg version="1.0" xmlns="http://www.w3.org/2000/svg" width="2448.000000pt" height="3264.000000pt" viewBox="0 0 2768.821 2032.311" preserveAspectRatio="xMidYMid meet">
  <g transform="matrix(0.180991, 0, 0, -0.180991, -589.008423, 4080.120605)" fill="#000000" stroke="none" style="">
    <path d="M5813 22511 c-15 -18 -29 -21 -103 -21 -60 0 -92 -4 -107 -15 -19 -13 -30 -14 -68 -4 -35 9 -56 9 -84 0 -21 -6 -64 -11 -95 -11 -60 0 -99 -17 -190 -82 -21 -15 -49 -28 -61 -28 -12 0 -30 -9 -40 -20 -12 -13 -31 -20 -55 -20 -36 0 -167 -56 -200 -86 -51 -46 -98 -81 -120 -91 -42 -19 -130 -103 -148 -142 -9 -19 -32 -45 -51 -56 -31 -18 -134 -108 -221 -190 -59 -56 -120 -132 -134 -167 -8 -18 -24 -42 -35 -52 -12 -11 -21 -27 -21 -36 0 -9 -22 -39 -50 -67 -27 -28 -50 -58 -50 -66 0 -8 -8 -25 -18 -38 -11 -13 -22 -36 -26 -51 -3 -15 -30 -47 -63 -75 -95 -80 -98 -85 -122 -190 -12 -54 -28 -120 -36 -148 -8 -27 -16 -74 -19 -104 -3 -30 -12 -61 -21 -71 -8 -9 -15 -26 -15 -37 0 -11 -7 -26 -15 -33 -8 -7 -15 -21 -15 -31 0 -10 -9 -33 -20 -51 -14 -23 -20 -51 -20 -89 0 -41 -5 -63 -20 -82 -11 -14 -20 -35 -20 -46 0 -12 -7 -38 -15 -58 -8 -19 -15 -45 -15 -57 0 -12 -8 -33 -17 -46 -23 -32 -44 -86 -50 -130 -3 -19 -14 -46 -24 -59 -17 -21 -19 -42 -19 -165 0 -122 -3 -146 -20 -179 -11 -20 -20 -49 -20 -64 -1 -16 -7 -39 -15 -53 -11 -19 -14 -70 -15 -218 0 -145 -4 -202 -14 -225 -8 -18 -16 -69 -18 -114 -3 -53 -10 -90 -21 -107 -19 -29 -22 -78 -6 -108 8 -15 7 -97 -2 -304 -12 -273 -12 -284 6 -304 14 -15 20 -43 25 -103 3 -45 11 -92 18 -104 7 -12 12 -59 12 -111 0 -76 3 -91 20 -107 12 -11 20 -31 20 -50 0 -18 9 -44 20 -58 11 -14 18 -31 15 -39 -3 -7 4 -31 15 -53 11 -21 20 -44 20 -50 0 -6 9 -28 20 -50 11 -22 20 -56 20 -76 0 -20 7 -42 15 -49 8 -7 15 -24 15 -39 0 -14 9 -41 20 -59 11 -18 20 -50 20 -71 0 -25 5 -41 15 -45 8 -3 15 -17 15 -31 0 -14 9 -30 20 -37 11 -7 20 -24 20 -38 0 -15 9 -31 21 -38 12 -8 18 -19 15 -29 -4 -8 5 -28 19 -45 20 -24 25 -37 20 -60 -6 -23 -2 -33 14 -44 12 -9 21 -25 21 -37 0 -12 9 -28 21 -35 12 -8 18 -19 15 -28 -3 -9 3 -27 13 -41 11 -13 18 -30 15 -37 -3 -7 4 -21 16 -31 11 -10 20 -28 20 -41 0 -13 9 -28 21 -35 13 -7 19 -17 16 -29 -3 -11 3 -26 14 -36 10 -9 19 -27 19 -39 0 -13 21 -42 55 -74 48 -46 55 -57 55 -91 0 -22 6 -42 13 -47 8 -4 17 -25 20 -47 3 -21 13 -46 22 -56 8 -9 15 -28 15 -42 0 -14 6 -31 13 -37 8 -6 20 -30 27 -53 7 -24 25 -56 40 -73 14 -16 35 -47 45 -69 47 -92 62 -114 101 -149 22 -20 53 -41 67 -46 19 -7 27 -18 27 -34 0 -13 11 -34 25 -47 14 -13 25 -30 25 -37 0 -8 24 -40 54 -71 30 -31 61 -74 69 -94 9 -21 21 -38 26 -38 6 0 11 -11 11 -24 0 -17 41 -63 153 -172 146 -143 216 -194 264 -194 11 0 26 -7 33 -15 8 -9 30 -15 57 -15 37 0 49 -6 79 -35 19 -19 39 -35 45 -35 6 0 29 -15 52 -32 23 -18 49 -37 58 -43 54 -33 134 -92 159 -116 16 -16 35 -29 43 -29 20 0 49 -35 52 -64 4 -33 22 -64 45 -76 11 -6 20 -15 20 -21 0 -6 18 -48 40 -95 22 -47 40 -100 40 -118 0 -19 7 -39 15 -46 11 -9 15 -34 15 -99 0 -67 5 -96 20 -126 13 -26 20 -59 20 -98 0 -36 7 -71 19 -95 10 -20 16 -42 14 -48 -2 -6 6 -19 17 -29 13 -12 20 -31 20 -57 0 -32 6 -44 35 -69 20 -18 35 -40 35 -53 0 -13 9 -31 20 -41 14 -13 20 -31 20 -61 0 -52 40 -187 82 -271 29 -60 30 -67 33 -221 2 -147 4 -162 25 -190 12 -16 19 -35 15 -41 -3 -6 2 -26 13 -44 11 -17 25 -50 32 -71 8 -24 31 -56 58 -80 102 -93 134 -130 163 -191 30 -65 38 -71 90 -67 9 1 25 -8 34 -18 11 -13 31 -20 52 -20 25 0 47 -10 76 -34 47 -38 57 -40 218 -37 l106 1 67 61 c37 34 74 75 82 92 9 16 74 89 145 162 71 73 129 138 129 146 0 8 8 26 18 39 27 39 20 264 -11 340 -21 53 -22 66 -22 430 0 296 -3 382 -14 408 -14 34 -8 85 23 184 11 33 69 88 94 88 5 0 23 16 42 35 25 26 43 35 66 35 39 0 84 -34 84 -64 0 -13 9 -31 20 -41 11 -10 20 -26 20 -37 0 -10 9 -27 20 -38 14 -14 18 -27 14 -49 -5 -22 -1 -34 15 -47 12 -10 21 -28 21 -40 0 -11 9 -29 20 -39 12 -10 18 -26 15 -35 -3 -9 3 -25 15 -35 11 -10 20 -26 20 -37 0 -10 9 -27 21 -39 15 -15 20 -29 16 -49 -4 -20 -1 -33 13 -45 17 -15 20 -31 20 -99 0 -63 4 -88 20 -114 18 -28 20 -50 20 -176 0 -119 3 -145 15 -150 12 -4 15 -23 15 -84 0 -59 -4 -83 -15 -92 -10 -8 -15 -31 -15 -72 0 -32 7 -75 15 -95 8 -19 15 -43 15 -53 0 -9 9 -25 20 -35 11 -10 20 -26 20 -35 0 -10 7 -23 15 -30 8 -7 15 -22 15 -35 0 -12 9 -30 20 -40 13 -12 20 -31 20 -55 0 -33 8 -45 70 -104 39 -36 88 -77 110 -91 21 -14 44 -34 50 -45 6 -11 19 -20 29 -20 10 0 26 -9 36 -20 11 -12 31 -20 50 -20 18 0 38 -7 45 -15 8 -9 30 -15 60 -15 30 0 52 -6 60 -15 7 -8 36 -29 66 -45 29 -17 70 -50 91 -74 21 -24 49 -45 63 -49 14 -3 46 -12 71 -20 l47 -15 78 40 c44 22 86 46 95 54 8 8 26 14 38 14 12 0 35 10 51 21 16 12 35 19 43 16 15 -6 31 11 155 151 23 27 42 56 42 64 0 9 7 29 15 44 22 42 22 396 0 414 -8 7 -15 21 -15 31 0 11 -8 38 -18 62 -31 70 -52 143 -52 178 -1 19 -9 50 -20 69 -10 19 -26 51 -35 70 -8 19 -25 42 -35 52 -11 11 -20 27 -20 37 0 10 -9 26 -20 36 -12 10 -18 25 -16 32 3 7 -3 28 -14 46 -11 18 -20 50 -20 73 0 22 -9 59 -20 82 -12 25 -20 61 -20 95 0 36 -5 59 -15 67 -10 8 -15 30 -15 65 0 39 -5 56 -20 70 -16 14 -20 31 -20 75 0 39 -5 62 -15 70 -8 7 -15 22 -15 35 0 12 -9 30 -20 40 -11 10 -20 26 -20 35 0 10 -7 23 -15 30 -8 7 -15 21 -15 31 0 11 -9 27 -20 36 -14 12 -20 30 -20 58 0 50 27 80 82 90 20 4 39 13 42 21 9 23 108 19 139 -6 14 -11 34 -20 45 -20 11 0 25 -7 32 -15 7 -8 22 -15 33 -15 11 0 29 -8 39 -17 10 -9 41 -18 71 -21 48 -4 56 -1 97 32 37 29 53 36 91 36 29 0 51 -6 59 -15 10 -12 41 -15 160 -15 134 0 148 -2 165 -20 15 -16 31 -20 90 -20 56 0 74 -4 79 -15 4 -12 25 -15 101 -15 83 0 97 -3 112 -20 10 -11 26 -20 37 -20 11 0 27 -7 35 -14 12 -11 58 -17 176 -22 88 -3 182 -12 209 -20 27 -8 78 -14 112 -14 42 0 67 -5 78 -15 8 -8 22 -15 30 -15 9 0 24 -9 33 -20 10 -11 28 -20 40 -20 12 0 52 -16 87 -35 36 -19 74 -35 85 -35 31 0 194 -86 234 -124 l37 -35 0 -123 c0 -106 3 -127 20 -153 15 -23 20 -47 20 -102 0 -62 5 -80 35 -139 32 -61 35 -75 35 -149 0 -52 5 -93 15 -111 11 -24 15 -97 17 -374 3 -310 5 -348 21 -370 9 -13 17 -37 17 -52 0 -19 13 -43 40 -72 22 -24 40 -48 40 -53 0 -14 52 -60 76 -67 32 -10 134 -117 163 -171 29 -54 93 -99 158 -111 21 -4 43 -11 49 -15 6 -5 47 -12 90 -15 43 -4 91 -13 106 -20 39 -20 247 -19 274 1 10 8 31 15 46 15 14 0 57 16 94 35 37 19 77 35 89 35 32 0 74 37 91 80 9 23 40 60 75 90 l59 51 0 172 c-1 149 -4 177 -20 207 -29 55 -50 101 -50 114 0 6 -7 20 -15 30 -8 11 -15 29 -15 41 0 11 -8 37 -19 57 -10 20 -21 58 -25 84 -3 26 -12 57 -20 68 -7 12 -16 38 -20 58 -4 20 -13 50 -21 65 -8 15 -15 49 -15 75 0 26 -8 69 -19 95 -10 26 -21 73 -25 104 -3 31 -13 72 -21 92 -9 22 -15 68 -15 114 -1 53 -5 84 -15 97 -8 11 -15 27 -15 36 0 10 -11 38 -25 64 -14 26 -25 60 -25 77 0 16 -9 47 -20 69 -11 22 -20 46 -20 55 0 9 -9 33 -20 55 -35 68 -29 85 55 165 57 54 75 79 75 99 0 19 9 32 32 46 29 17 35 18 55 5 14 -10 47 -15 91 -15 54 0 75 -4 95 -20 14 -11 38 -20 53 -20 31 0 26 4 157 -121 53 -51 97 -100 97 -110 0 -9 6 -22 14 -28 8 -7 17 -24 21 -38 3 -15 15 -38 26 -51 10 -14 19 -30 19 -36 0 -7 20 -31 44 -55 65 -64 94 -159 105 -347 4 -75 11 -118 22 -135 14 -20 16 -65 18 -289 1 -217 4 -267 16 -280 8 -9 15 -35 15 -58 0 -31 5 -44 20 -52 11 -6 20 -21 20 -34 0 -23 37 -66 57 -66 10 0 37 -30 93 -102 14 -18 26 -41 26 -52 1 -11 16 -31 33 -45 31 -25 111 -170 111 -199 0 -9 10 -29 23 -46 12 -17 37 -61 56 -99 46 -92 97 -137 155 -137 26 0 48 -6 56 -15 10 -12 37 -15 125 -15 97 0 116 -3 138 -20 14 -11 38 -20 55 -20 16 0 37 -9 47 -20 16 -17 31 -20 117 -20 76 0 105 -4 125 -17 24 -16 26 -16 38 0 9 12 27 17 61 17 46 0 53 -3 99 -50 27 -27 56 -50 65 -50 32 0 47 51 43 144 -7 125 0 150 58 211 27 28 49 61 49 73 0 12 7 25 17 30 9 5 17 19 18 31 1 12 34 55 73 95 l72 74 0 125 c0 111 -2 126 -20 142 -15 14 -20 31 -20 73 0 37 -5 58 -15 66 -8 6 -17 22 -20 35 -2 14 -19 40 -37 58 -19 20 -32 42 -30 53 2 11 -6 23 -17 30 -12 6 -21 21 -21 34 0 13 -7 29 -15 36 -8 7 -15 27 -15 45 0 49 -27 104 -76 157 -24 26 -44 52 -44 58 0 7 -39 51 -86 98 -47 48 -98 107 -113 132 -48 83 -182 254 -247 315 -19 18 -34 41 -34 52 0 12 -7 26 -15 33 -8 7 -15 18 -15 24 0 7 -11 27 -25 46 -32 43 -35 118 -6 144 11 10 19 25 19 34 -3 44 47 112 150 208 59 55 112 103 119 107 7 4 29 -2 50 -13 26 -14 57 -20 98 -20 34 0 66 -5 73 -12 9 -9 15 -9 24 0 18 18 152 16 168 -3 7 -8 29 -15 50 -15 21 0 43 7 50 15 8 10 31 15 68 15 49 0 59 -4 94 -36 38 -34 43 -35 92 -30 99 12 260 1 277 -20 7 -8 30 -14 58 -14 28 0 59 -8 79 -20 42 -26 92 -26 125 0 17 14 40 20 75 20 34 0 57 -6 75 -20 30 -24 84 -26 108 -4 10 9 36 18 59 21 32 5 48 1 70 -16 40 -29 132 -29 175 -1 25 17 47 20 141 20 81 0 115 4 130 15 15 11 58 14 207 15 l189 0 27 28 c35 36 71 95 71 118 1 11 9 29 19 40 15 19 30 22 103 25 48 2 90 7 93 11 4 4 0 23 -9 42 -9 19 -16 43 -16 53 0 11 47 69 105 130 86 91 105 117 105 142 0 40 18 77 47 96 22 15 23 22 23 118 1 70 5 108 14 120 12 15 11 25 -2 67 -15 48 -15 51 6 80 20 26 22 41 22 148 0 133 16 183 70 224 l30 22 0 168 c0 157 1 169 20 180 12 8 20 24 20 39 0 15 7 29 15 33 12 4 15 25 15 99 0 81 3 96 20 112 15 14 20 31 20 74 0 42 5 61 18 72 15 13 17 39 20 207 3 182 3 193 -17 218 -16 20 -21 41 -21 85 0 35 -8 75 -20 104 -14 32 -20 69 -20 120 0 52 -4 76 -15 85 -12 10 -15 36 -15 117 0 90 -3 109 -20 130 -17 21 -20 41 -20 113 0 66 -4 91 -15 100 -12 10 -15 36 -15 116 0 85 -4 111 -20 141 -13 24 -20 57 -20 91 0 36 -6 61 -19 80 -11 15 -22 50 -26 77 -4 28 -12 59 -19 70 -7 11 -16 47 -21 80 -4 33 -12 66 -17 73 -13 15 -40 63 -66 117 -11 22 -41 60 -66 85 -25 24 -46 52 -46 61 0 9 -9 24 -20 34 -11 10 -35 48 -52 84 -18 36 -42 78 -55 94 -12 15 -20 33 -17 40 2 7 -4 22 -16 32 -11 10 -20 28 -20 39 0 12 -9 29 -20 39 -11 9 -17 22 -15 29 3 8 -13 31 -35 53 -22 21 -40 49 -40 60 0 14 -31 51 -90 106 -62 57 -90 90 -90 106 0 12 -9 27 -20 33 -15 8 -19 17 -15 31 7 20 -3 34 -103 149 -94 108 -155 170 -168 170 -7 0 -28 13 -46 28 -38 33 -271 152 -298 152 -9 0 -25 9 -35 20 -11 12 -31 20 -50 20 -18 0 -38 7 -45 15 -7 8 -27 15 -45 15 -18 0 -38 6 -44 14 -7 8 -22 17 -34 20 -12 3 -51 37 -85 76 -59 65 -66 70 -104 70 -25 0 -49 8 -65 20 -43 34 -108 27 -173 -17 -54 -37 -57 -38 -151 -38 -78 0 -101 3 -116 18 -18 16 -54 17 -458 17 -401 0 -440 -1 -457 -17 -13 -12 -42 -19 -89 -21 -48 -3 -72 -9 -76 -18 -4 -11 -37 -14 -157 -14 -134 0 -154 -2 -181 -20 -16 -11 -42 -20 -56 -20 -15 0 -32 -7 -39 -15 -7 -8 -20 -15 -30 -15 -9 0 -25 -9 -35 -20 -10 -11 -28 -20 -40 -20 -13 0 -28 -6 -34 -14 -6 -7 -25 -16 -42 -20 -16 -3 -50 -21 -75 -40 -25 -19 -52 -32 -60 -29 -7 3 -30 -4 -49 -16 -20 -12 -46 -21 -58 -21 -13 0 -32 -7 -45 -15 -12 -9 -37 -18 -56 -20 -19 -3 -59 -19 -88 -36 -29 -18 -72 -34 -95 -37 -41 -4 -48 -10 -44 -40 1 -7 -15 -20 -36 -28 -50 -21 -393 -360 -393 -389 0 -12 -18 -39 -40 -60 -22 -21 -40 -47 -40 -56 0 -9 -7 -22 -15 -29 -8 -7 -15 -22 -15 -35 0 -12 -9 -30 -19 -39 -11 -10 -17 -25 -14 -33 7 -19 -14 -33 -51 -33 -16 0 -44 -11 -63 -26 -31 -23 -33 -29 -33 -83 0 -40 -5 -63 -15 -71 -10 -8 -15 -31 -15 -69 -1 -51 -4 -60 -39 -98 -33 -37 -44 -43 -79 -43 -22 0 -45 6 -51 14 -7 8 -27 17 -46 20 -28 6 -35 12 -35 30 0 13 -9 31 -20 41 -16 14 -20 31 -20 77 0 43 -4 60 -15 64 -9 4 -15 19 -15 38 0 17 -9 55 -20 84 -14 37 -20 76 -20 137 0 73 -4 94 -30 148 -16 34 -47 80 -70 102 -22 21 -40 48 -40 60 0 22 -51 74 -135 140 -63 49 -103 91 -236 252 -42 50 -120 131 -173 179 -53 48 -96 94 -96 103 0 30 -84 98 -180 146 -171 85 -220 111 -232 123 -7 7 -19 12 -28 12 -8 0 -32 16 -53 35 -21 19 -41 35 -45 35 -4 0 -39 22 -77 50 -39 27 -98 63 -132 79 -34 17 -64 35 -68 41 -3 5 -14 10 -24 10 -10 0 -24 7 -31 15 -7 8 -27 17 -46 21 -18 3 -38 12 -45 20 -6 8 -26 14 -43 14 -17 0 -44 9 -61 20 -16 11 -44 20 -61 20 -17 0 -37 7 -44 15 -8 9 -30 15 -59 15 -28 0 -59 8 -79 20 -26 16 -50 20 -126 20 -71 0 -97 4 -106 15 -7 8 -29 15 -49 15 -20 0 -53 9 -74 20 -31 17 -56 20 -149 20 -92 0 -115 3 -131 18 -17 15 -46 17 -240 20 -172 2 -225 6 -241 18 -11 7 -32 14 -46 14 -14 0 -38 9 -55 20 -16 11 -46 20 -66 20 -20 0 -42 7 -49 15 -8 10 -31 15 -70 15 -39 0 -62 -5 -70 -15 -10 -12 -40 -15 -150 -15 -122 0 -140 -2 -163 -20 -22 -17 -40 -20 -144 -20 -89 0 -124 -4 -139 -15 -13 -10 -46 -14 -115 -15 -81 0 -99 -3 -119 -20 -13 -11 -29 -20 -37 -20 -7 0 -30 -9 -50 -20 -21 -11 -56 -20 -78 -20 -23 0 -50 -7 -61 -15 -10 -8 -31 -15 -45 -15 -14 0 -34 -9 -44 -20 -14 -15 -31 -20 -74 -20 -45 0 -72 -8 -141 -42 -47 -23 -100 -54 -118 -70 -25 -21 -43 -28 -76 -28 -27 0 -48 -6 -56 -15 -7 -8 -20 -15 -30 -15 -9 0 -38 -16 -63 -35 -25 -19 -50 -35 -55 -35 -5 0 -29 -15 -53 -33 -44 -33 -75 -52 -135 -80 -17 -8 -35 -20 -39 -26 -4 -7 -23 -22 -43 -35 -21 -13 -79 -60 -130 -105 -51 -44 -97 -81 -103 -81 -5 0 -28 -17 -49 -37 -22 -21 -48 -45 -57 -54 -10 -9 -26 -30 -35 -48 -9 -17 -30 -36 -45 -42 -44 -16 -173 -149 -173 -178 0 -16 -21 -44 -70 -90 -38 -37 -70 -73 -70 -80 0 -30 -34 -70 -66 -75 -37 -7 -50 -20 -59 -59 -4 -16 -18 -35 -31 -44 -21 -13 -23 -21 -18 -50 6 -30 2 -38 -35 -74 -32 -30 -41 -44 -36 -60 4 -12 -2 -33 -14 -55 -12 -19 -21 -44 -21 -54 0 -11 -9 -24 -20 -30 -15 -8 -19 -17 -14 -34 4 -17 -1 -27 -19 -39 -17 -11 -24 -23 -20 -36 2 -10 -2 -32 -11 -49 -9 -17 -16 -53 -16 -80 0 -34 -8 -63 -25 -95 -14 -24 -23 -51 -20 -59 3 -8 -3 -23 -15 -33 -17 -15 -20 -30 -20 -90 0 -60 -3 -75 -21 -91 -16 -15 -20 -26 -15 -53 4 -25 0 -41 -12 -54 -14 -15 -17 -39 -17 -117 0 -83 -3 -101 -19 -119 -18 -20 -19 -36 -17 -234 2 -204 2 -213 -18 -231 -18 -16 -21 -31 -21 -96 0 -62 4 -80 19 -94 16 -15 18 -36 19 -237 1 -121 4 -224 6 -228 3 -5 1 -23 -4 -42 -8 -27 -6 -36 10 -54 11 -12 20 -31 20 -42 0 -11 7 -26 15 -33 8 -7 15 -20 15 -29 0 -10 9 -36 20 -59 11 -22 20 -56 20 -75 0 -19 7 -40 15 -47 8 -7 15 -23 15 -36 0 -13 9 -28 20 -34 11 -6 20 -21 20 -34 0 -13 9 -31 20 -41 18 -16 19 -26 14 -89 -5 -62 -10 -75 -35 -98 -25 -24 -38 -28 -90 -28 l-61 0 -85 83 c-47 45 -91 96 -99 112 -7 17 -31 48 -53 70 -23 21 -41 49 -41 60 0 12 -15 36 -34 54 -19 18 -36 45 -39 60 -14 69 -35 124 -50 133 -12 6 -17 22 -17 52 0 27 -6 48 -15 56 -8 7 -15 29 -15 50 0 21 -7 43 -15 50 -8 7 -15 21 -15 31 0 11 -11 29 -25 41 -15 13 -23 28 -20 38 3 9 -4 25 -15 35 -11 10 -20 28 -20 40 0 13 -7 28 -15 35 -8 7 -15 20 -15 29 0 23 -49 68 -82 76 l-28 7 0 93 c0 79 -3 94 -20 110 -19 17 -20 31 -20 200 0 150 -3 185 -15 195 -12 10 -15 37 -15 120 0 94 -2 109 -20 125 -19 18 -20 31 -20 462 0 424 1 446 20 485 17 35 20 62 20 164 0 96 3 124 15 134 8 7 15 22 15 35 0 12 10 30 21 41 20 18 21 26 17 142 -5 112 -3 124 14 133 24 13 60 -6 56 -29 -5 -27 37 -27 56 0 13 18 16 52 16 183 l0 160 35 28 c34 27 35 29 35 102 0 63 3 77 21 94 12 11 19 26 16 35 -3 8 3 22 14 32 10 9 19 27 19 39 0 12 9 30 20 40 11 10 20 26 20 36 0 19 54 69 75 69 7 0 18 7 25 15 7 8 21 15 32 15 18 0 65 42 106 94 7 9 22 16 33 16 12 0 34 9 50 21 28 20 29 24 29 100 0 74 1 79 21 79 16 0 20 -5 16 -20 -11 -44 65 -54 112 -14 l31 26 0 127 c0 116 2 130 20 146 12 10 18 25 15 32 -6 16 37 59 69 69 33 10 216 195 216 219 0 11 9 28 20 38 12 10 18 22 14 28 -3 6 6 24 22 40 23 24 36 29 75 29 26 0 54 3 63 6 18 7 22 54 5 71 -9 9 -9 20 0 44 17 49 14 279 -4 322 -8 20 -15 58 -15 84 0 50 -30 125 -63 157 -9 10 -14 22 -11 28 3 5 -11 28 -32 49 -22 22 -39 50 -39 61 0 15 -10 24 -34 33 -18 6 -44 24 -57 40 -22 28 -24 29 -143 33 -112 4 -121 2 -138 -17z m-1095 -1393 c4 -19 -35 -35 -50 -20 -6 6 -8 18 -4 27 8 21 50 16 54 -7z m2089 -2670 c21 -19 23 -30 23 -110 0 -64 -4 -95 -16 -113 -14 -22 -14 -24 6 -35 28 -15 25 -65 -5 -65 -16 0 -21 8 -23 35 -2 19 -13 47 -24 62 -16 23 -20 46 -21 126 -3 125 10 147 60 100z m8297 -133 c16 -12 62 -15 245 -15 188 0 227 -2 241 -15 10 -9 35 -19 56 -22 34 -6 78 -32 151 -90 12 -10 46 -34 74 -53 65 -44 239 -210 239 -229 0 -7 36 -50 80 -95 46 -48 80 -91 80 -102 0 -12 22 -40 55 -69 36 -31 55 -55 55 -70 0 -12 7 -28 15 -35 8 -7 15 -19 15 -26 0 -7 16 -43 36 -79 22 -42 37 -86 40 -118 3 -29 13 -73 22 -99 13 -40 14 -53 3 -86 -10 -29 -10 -44 -2 -60 7 -13 11 -92 11 -215 0 -161 -3 -197 -15 -207 -9 -8 -15 -30 -15 -60 0 -32 -6 -55 -20 -73 -15 -19 -20 -40 -20 -92 0 -52 -4 -73 -21 -93 -15 -19 -19 -35 -15 -58 5 -23 1 -35 -14 -49 -11 -10 -20 -29 -20 -42 0 -13 -7 -26 -16 -30 -9 -3 -25 -24 -35 -47 -33 -69 -51 -100 -76 -129 -12 -16 -23 -35 -23 -43 0 -9 -22 -39 -50 -68 -27 -29 -50 -62 -50 -73 0 -13 -34 -53 -90 -106 -53 -51 -90 -94 -90 -105 0 -24 -18 -32 -75 -32 -25 0 -47 -6 -55 -15 -7 -8 -27 -17 -46 -21 -18 -3 -38 -12 -45 -20 -7 -9 -33 -14 -73 -14 -44 0 -69 -6 -91 -20 -24 -16 -47 -20 -111 -20 -64 0 -83 -3 -88 -15 -4 -12 -23 -15 -83 -15 -61 0 -85 -4 -108 -20 -26 -17 -47 -20 -160 -20 -113 0 -134 3 -160 20 -19 13 -47 20 -77 20 -45 0 -49 2 -62 34 -8 19 -20 38 -28 42 -7 5 -21 21 -31 37 -10 15 -24 27 -31 27 -7 0 -19 7 -26 15 -7 8 -24 15 -37 15 -14 0 -37 9 -51 20 -89 68 -125 90 -146 90 -13 0 -29 7 -36 15 -7 8 -18 15 -25 15 -7 0 -24 9 -37 19 -12 11 -39 34 -59 50 -20 17 -52 37 -70 45 -19 8 -45 26 -58 40 -14 14 -30 26 -36 26 -17 0 -78 47 -95 73 -8 13 -25 39 -37 58 -13 19 -23 43 -23 53 0 11 -41 62 -95 117 -52 53 -95 103 -95 111 0 8 -9 23 -19 32 -11 10 -29 37 -41 59 -12 23 -32 62 -45 87 -13 25 -24 59 -24 75 -1 37 -30 121 -54 158 -14 22 -17 51 -17 164 0 127 2 138 22 160 20 21 21 33 20 126 -2 93 0 105 18 122 11 10 20 26 20 35 0 10 7 23 15 30 8 7 15 22 15 35 0 12 9 30 20 40 15 14 19 26 15 45 -4 18 1 35 15 52 12 16 20 41 20 66 0 27 5 42 15 46 9 3 24 25 34 48 10 24 28 52 40 62 11 11 21 25 21 33 0 16 120 147 165 180 17 12 41 27 54 33 13 6 36 24 51 40 17 19 38 30 54 30 14 0 43 9 63 20 21 11 47 20 59 20 12 0 24 7 28 15 3 10 19 15 47 15 26 0 50 7 66 20 14 11 36 20 48 20 12 0 28 7 35 15 7 8 18 15 24 15 6 0 28 9 49 20 20 11 56 20 79 20 24 0 52 7 62 15 11 8 39 15 63 15 31 0 48 6 60 20 15 17 30 20 113 20 69 0 102 4 116 15 10 8 28 14 39 14 11 0 29 -6 39 -14z m-8200 -250 c31 -34 42 -96 19 -112 -24 -19 -38 -16 -72 13 -35 29 -40 66 -15 102 20 29 40 28 68 -3z m1532 -5330 c7 -19 14 -42 14 -52 0 -19 32 -108 56 -156 8 -16 14 -38 14 -50 0 -11 5 -47 12 -78 9 -43 9 -70 0 -111 -6 -29 -15 -71 -20 -93 -9 -46 -33 -54 -44 -15 -37 133 -58 242 -58 308 0 31 -7 82 -15 112 -8 30 -15 81 -15 113 0 51 2 57 21 57 13 0 25 -11 35 -35z m3692 5 c3 -21 2 -22 -12 -11 -19 16 -21 44 -3 39 6 -3 14 -15 15 -28z m-5650 -52 c7 -7 12 -23 12 -35 0 -13 10 -43 22 -66 21 -41 53 -166 44 -174 -8 -8 -42 20 -64 53 -47 72 -79 203 -55 227 10 11 28 8 41 -5z m5677 -46 c12 -8 35 -71 35 -95 0 -31 24 -69 53 -84 26 -13 28 -18 23 -54 -3 -21 -9 -57 -12 -79 -4 -29 -2 -46 9 -58 18 -21 29 -134 29 -291 -1 -84 3 -120 14 -135 19 -28 18 -43 -7 -77 -27 -38 -37 -37 -55 6 -10 25 -14 79 -14 202 0 154 -16 312 -34 341 -4 6 -11 45 -15 85 -6 51 -16 85 -34 113 -39 62 -34 157 8 126z m2148 -380 c4 -147 -1 -187 -20 -168 -3 3 -9 65 -14 138 -4 73 -13 151 -20 174 -7 23 -9 49 -6 58 6 15 10 14 31 -11 24 -28 25 -37 29 -191z m-7717 94 c3 -8 4 -27 2 -43 l-3 -28 -18 32 c-9 18 -17 37 -17 43 0 15 30 12 36 -4z m358 -132 c35 -13 7 -69 -31 -62 -22 4 -29 34 -13 53 14 17 21 18 44 9z" style="fill: rgb(255, 255, 255);"/>
    <path d="M14995 17810 c-11 -5 -36 -9 -56 -9 -20 -1 -42 -8 -49 -16 -7 -8 -27 -15 -45 -15 -19 0 -39 -8 -50 -20 -10 -11 -22 -20 -27 -20 -6 0 -38 -25 -71 -55 -34 -30 -66 -55 -71 -55 -5 0 -26 -15 -46 -32 -74 -64 -92 -78 -101 -78 -5 0 -9 -7 -9 -15 0 -9 -18 -35 -40 -59 -22 -24 -40 -52 -40 -63 0 -11 -9 -28 -20 -38 -11 -10 -20 -26 -20 -35 0 -10 -7 -23 -15 -30 -23 -19 -22 -328 2 -373 9 -18 17 -49 18 -70 1 -21 10 -46 19 -56 9 -9 16 -26 16 -37 0 -11 9 -27 20 -37 13 -11 20 -30 20 -54 1 -21 7 -49 15 -63 8 -14 14 -36 15 -50 0 -32 141 -173 185 -187 22 -7 36 -22 53 -56 l22 -47 53 0 c35 0 62 -7 82 -20 21 -14 47 -20 86 -20 38 0 61 -5 69 -15 17 -21 162 -21 180 -1 6 8 30 16 53 18 33 2 43 8 57 33 22 40 149 144 177 145 12 0 27 9 33 20 7 13 21 20 41 20 17 0 32 6 35 15 4 8 15 15 26 15 11 0 31 9 45 20 14 11 32 20 40 20 27 0 124 94 144 138 17 39 19 68 19 266 l0 222 -30 59 c-17 33 -35 64 -40 69 -6 6 -10 17 -10 26 0 9 -9 25 -20 35 -13 12 -20 31 -20 55 0 23 -7 43 -17 51 -9 8 -25 33 -35 56 -38 85 -255 263 -321 263 -12 0 -35 9 -52 20 -21 14 -47 20 -86 20 -36 0 -61 5 -68 14 -7 8 -35 16 -64 18 -29 2 -59 7 -67 10 -8 4 -24 3 -35 -2z" style="fill: rgb(255, 255, 255);"/>
  </g>
</svg>